<?xml version="1.0" encoding="utf-8"?>
<!-- Generator: Adobe Illustrator 25.1.0, SVG Export Plug-In . SVG Version: 6.00 Build 0)  -->
<svg version="1.1" id="Ebene_1" xmlns="http://www.w3.org/2000/svg" xmlns:xlink="http://www.w3.org/1999/xlink" x="0px" y="0px"
	 viewBox="0 0 266.7 266.7" style="enable-background:new 0 0 266.7 266.7;" xml:space="preserve">
<style type="text/css">
	.st0{fill-rule:evenodd;clip-rule:evenodd;fill:#BBB9C8;}
	.st1{opacity:0.789;fill-rule:evenodd;clip-rule:evenodd;fill:url(#path4829_1_);enable-background:new    ;}
	.st2{fill-rule:evenodd;clip-rule:evenodd;fill:#FFED00;stroke:#000000;stroke-width:1.7861;stroke-miterlimit:13.1152;}
</style>
<g id="g1713" transform="matrix(3.27879 0 0 3.27879 -9.76031 -5.69697)">
	<g>
		<path id="path3504" class="st0" d="M71.3,41.9c0,15.2-12.3,27.5-27.5,27.5S16.2,57.1,16.2,41.9c0,0,0,0,0,0
			c0-15.2,12.3-27.5,27.5-27.5C59,14.4,71.3,26.7,71.3,41.9C71.3,41.9,71.3,41.9,71.3,41.9z"/>
		
			<linearGradient id="path4829_1_" gradientUnits="userSpaceOnUse" x1="-111.748" y1="159.364" x2="-110.8779" y2="158.6043" gradientTransform="matrix(218.4717 0 0 -236.9129 24429.668 37769.3477)">
			<stop  offset="0" style="stop-color:#000000"/>
			<stop  offset="1" style="stop-color:#000000"/>
		</linearGradient>
		<path id="path4829" class="st1" d="M57.2,12.5L32,38.2l13.6,0.5L24,60.1l9.1,0.2L18.1,76.9l36.5-20.4L41,56.7l27.5-22l-14.9,0
			L78,11.9L57.2,12.5L57.2,12.5z"/>
	</g>
	<path id="path4828" class="st2" d="M55.9,10.6L30.7,36.2l13.6,0.5L22.8,58.1l9.1,0.2L16.8,74.9l36.5-20.4l-13.6,0.1l27.5-22
		l-14.9,0L76.8,9.9L55.9,10.6L55.9,10.6z"/>
</g>
</svg>
