<?xml version="1.0" encoding="utf-8"?>
<!-- Generator: Adobe Illustrator 25.1.0, SVG Export Plug-In . SVG Version: 6.00 Build 0)  -->
<svg version="1.1" id="Ebene_1" xmlns="http://www.w3.org/2000/svg" xmlns:xlink="http://www.w3.org/1999/xlink" x="0px" y="0px"
	 viewBox="0 0 92 92" style="enable-background:new 0 0 92 92;" xml:space="preserve" fill="currentColor">
<style type="text/css">
	.st0{fill-rule:evenodd;clip-rule:evenodd;}
</style>
<path class="st0" d="M46,2.8C21.6,2.8,1.7,22.6,1.7,46.9c0,19.5,12.7,36,30.3,41.9c2.2,0.4,3-0.9,3-2.1c0-1-0.1-4.5-0.1-8.2
	c-11.1,2-14-2.7-14.9-5.2c-0.5-1.3-2.7-5.2-4.5-6.2c-1.6-0.8-3.8-2.9-0.1-2.9c3.5-0.1,6,3.2,6.8,4.5c4,6.7,10.4,4.8,12.9,3.6
	c0.4-2.9,1.6-4.8,2.8-5.9c-9.9-1.1-20.2-4.9-20.2-21.8c0-4.8,1.7-8.8,4.5-11.9c-0.4-1.1-2-5.6,0.4-11.7c0,0,3.7-1.2,12.2,4.5
	c3.5-1,7.3-1.5,11.1-1.5c3.8,0,7.5,0.5,11.1,1.5c8.5-5.7,12.2-4.5,12.2-4.5c2.4,6.1,0.9,10.6,0.4,11.7c2.8,3.1,4.5,7,4.5,11.9
	c0,16.9-10.4,20.7-20.2,21.8c1.6,1.4,3,4,3,8.2c0,5.9-0.1,10.6-0.1,12.1c0,1.2,0.8,2.5,3,2.1C77.6,83,90.3,66.4,90.3,46.9
	C90.3,22.6,70.5,2.8,46,2.8z"/>
</svg>
