<svg xmlns="http://www.w3.org/2000/svg" viewBox="0 0 500.06 397.27"><defs><style>.cls-1{fill:#ee7458;}</style></defs><g id="Ebene_2" data-name="Ebene 2"><g id="Ebene_1-2" data-name="Ebene 1"><path class="cls-1" d="M165.24,267.9c-11.09,0-20-9.1-20.06-20.53,0-10.28,9.4-19.47,20.06-19.52,11,0,19.91,9.19,20,20.64C185.25,259,176.12,267.88,165.24,267.9Z"/><path class="cls-1" d="M282.07,87.19c0,10.37-9.47,19.4-20.17,19.33-11-.08-19.86-9.44-19.81-20.83,0-10.44,9.36-19.3,20.2-19.23C273.37,66.53,282.13,75.71,282.07,87.19Z"/><path class="cls-1" d="M343,376.7c-.08-10.41,9.14-19.52,19.87-19.65,10.89-.13,20,9.21,20.11,20.56.08,10.36-9.2,19.52-19.91,19.66C352.18,397.41,343.09,388.1,343,376.7Z"/><path class="cls-1" d="M371.13,158.88c-11.13.07-20-9-20.08-20.44C351,128,360.23,118.93,371,118.84c11-.08,20,9.16,20.09,20.55C391.12,149.88,382,158.81,371.13,158.88Z"/><path class="cls-1" d="M343,20.85c-.05,10.32-9.59,19.45-20.22,19.35-11-.11-19.83-9.39-19.78-20.84C303,9,312.51-.09,323.15,0,334.08.1,343,9.51,343,20.85Z"/><path class="cls-1" d="M322.52,283.86c-11.07,0-20-9.22-20-20.63,0-10.28,9.54-19.45,20.18-19.41,10.9,0,20,9.49,20,20.74C342.74,274.88,333.31,283.87,322.52,283.86Z"/><path class="cls-1" d="M460.08,257.34c0-10.32,9.57-19.46,20.18-19.37,10.95.1,19.84,9.46,19.8,20.86,0,10.39-9.43,19.36-20.18,19.29C468.85,278,460,268.78,460.08,257.34Z"/><path class="cls-1" d="M144.91,162.91c-11.09,0-19.87-9.19-19.83-20.68,0-10.37,9.46-19.43,20.15-19.37,11,0,19.86,9.4,19.83,20.81C165,154.13,155.8,163,144.91,162.91Z"/><path class="cls-1" d="M208.85,376.93c-11-.37-19.79-10.12-19.27-21.32.47-10.34,10.29-19.16,20.85-18.73,10.88.44,19.86,10.41,19.32,21.43C229.24,368.72,219.62,377.29,208.85,376.93Z"/><path class="cls-1" d="M109,53.66c-.08-10.39,9.17-19.53,19.88-19.66s20,9.28,20.14,20.58c.09,10.32-9.27,19.53-19.95,19.64C118.08,74.33,109,65.08,109,53.66Z"/><path class="cls-1" d="M72.51,292.58c11.07,0,19.95,9.2,20,20.62,0,10.34-9.39,19.4-20.13,19.4-10.91,0-20-9.39-20-20.69C52.29,301.63,61.76,292.57,72.51,292.58Z"/><path class="cls-1" d="M0,182.67c0-10.44,9.28-19.36,20.11-19.32,11,0,19.91,9.25,19.89,20.68,0,10.31-9.51,19.46-20.14,19.42C8.9,203.41,0,194.09,0,182.67Z"/><path class="cls-1" d="M261.5,216.42c-11.06,0-20-9.22-20-20.63,0-10.28,9.54-19.45,20.18-19.41,10.9,0,20,9.49,20,20.74C281.72,207.44,272.29,216.43,261.5,216.42Z"/></g></g></svg>