<?xml version="1.0" encoding="utf-8"?>
<!-- Generator: Adobe Illustrator 25.1.0, SVG Export Plug-In . SVG Version: 6.00 Build 0)  -->
<svg version="1.1" id="Ebene_1" xmlns="http://www.w3.org/2000/svg" xmlns:xlink="http://www.w3.org/1999/xlink" x="0px" y="0px"
	 viewBox="0 0 500.1 397.3" style="enable-background:new 0 0 500.1 397.3;" xml:space="preserve">
<style type="text/css">
	.st0{fill:#E16A3D;}
</style>
<g id="Ebene_2_1_">
	<g id="Ebene_1-2">
		<path class="st0" d="M165.2,267.9c-11.1,0-20-9.1-20.1-20.5c0-10.3,9.4-19.5,20.1-19.5c11,0,19.9,9.2,20,20.6
			C185.2,259,176.1,267.9,165.2,267.9z"/>
		<path class="st0" d="M282.1,87.2c0,10.4-9.5,19.4-20.2,19.3c-11-0.1-19.9-9.4-19.8-20.8c0-10.4,9.4-19.3,20.2-19.2
			C273.4,66.5,282.1,75.7,282.1,87.2z"/>
		<path class="st0" d="M343,376.7c-0.1-10.4,9.1-19.5,19.9-19.6c10.9-0.1,20,9.2,20.1,20.6c0.1,10.4-9.2,19.5-19.9,19.7
			C352.2,397.4,343.1,388.1,343,376.7z"/>
		<path class="st0" d="M371.1,158.9c-11.1,0.1-20-9-20.1-20.4c-0.1-10.4,9.2-19.5,19.9-19.6c11-0.1,20,9.2,20.1,20.5
			C391.1,149.9,382,158.8,371.1,158.9z"/>
		<path class="st0" d="M343,20.9c0,10.3-9.6,19.5-20.2,19.4c-11-0.1-19.8-9.4-19.8-20.8C303,9,312.5-0.1,323.1,0
			C334.1,0.1,343,9.5,343,20.9z"/>
		<path class="st0" d="M322.5,283.9c-11.1,0-20-9.2-20-20.6c0-10.3,9.5-19.4,20.2-19.4c10.9,0,20,9.5,20,20.7
			C342.7,274.9,333.3,283.9,322.5,283.9z"/>
		<path class="st0" d="M460.1,257.3c0-10.3,9.6-19.5,20.2-19.4c11,0.1,19.8,9.5,19.8,20.9c0,10.4-9.4,19.4-20.2,19.3
			C468.9,278,460,268.8,460.1,257.3z"/>
		<path class="st0" d="M144.9,162.9c-11.1,0-19.9-9.2-19.8-20.7c0-10.4,9.5-19.4,20.1-19.4c11,0,19.9,9.4,19.8,20.8
			C165,154.1,155.8,163,144.9,162.9z"/>
		<path class="st0" d="M208.9,376.9c-11-0.4-19.8-10.1-19.3-21.3c0.5-10.3,10.3-19.2,20.9-18.7c10.9,0.4,19.9,10.4,19.3,21.4
			C229.2,368.7,219.6,377.3,208.9,376.9z"/>
		<path class="st0" d="M109,53.7c-0.1-10.4,9.2-19.5,19.9-19.7s20,9.3,20.1,20.6c0.1,10.3-9.3,19.5-19.9,19.6
			C118.1,74.3,109,65.1,109,53.7z"/>
		<path class="st0" d="M72.5,292.6c11.1,0,20,9.2,20,20.6c0,10.3-9.4,19.4-20.1,19.4c-10.9,0-20-9.4-20-20.7
			C52.3,301.6,61.8,292.6,72.5,292.6z"/>
		<path class="st0" d="M0,182.7c0-10.4,9.3-19.4,20.1-19.3c11,0,19.9,9.2,19.9,20.7c0,10.3-9.5,19.5-20.1,19.4
			C8.9,203.4,0,194.1,0,182.7z"/>
		<path class="st0" d="M261.5,216.4c-11.1,0-20-9.2-20-20.6c0-10.3,9.5-19.4,20.2-19.4c10.9,0,20,9.5,20,20.7
			C281.7,207.4,272.3,216.4,261.5,216.4z"/>
	</g>
</g>
</svg>
