<?xml version="1.0" encoding="utf-8"?>
<!-- Generator: Adobe Illustrator 25.1.0, SVG Export Plug-In . SVG Version: 6.00 Build 0)  -->
<svg version="1.1" id="Ebene_1" xmlns="http://www.w3.org/2000/svg" xmlns:xlink="http://www.w3.org/1999/xlink" x="0px" y="0px"
	 viewBox="0 0 340.2 54.2" style="enable-background:new 0 0 340.2 54.2;" xml:space="preserve">
<style type="text/css">
	.st0{fill:#F2CF66;}
</style>
<g>
	<path class="st0" d="M24.4,42.3H9V16.6h15.4V42.3z"/>
	<path class="st0" d="M50.5,35.3c0,1-0.3,2-0.7,2.9c-0.4,0.9-1,1.7-1.7,2.3c-0.7,0.6-1.5,1.1-2.4,1.5c-0.9,0.4-1.8,0.6-2.8,0.6h-7.7
		c-1.1,0-2.1-0.2-3-0.6c-0.9-0.4-1.8-1-2.4-1.7c-0.7-0.7-1.2-1.5-1.6-2.5c-0.4-0.9-0.6-1.9-0.6-3v-2.6h15.4v2.6V40
		c0.7,0,1.4-0.1,2-0.4s1.2-0.6,1.6-1.1s0.8-1,1.1-1.6s0.4-1.3,0.4-2c0-0.7-0.1-1.4-0.4-2s-0.6-1.2-1.1-1.6c-0.5-0.5-1-0.8-1.6-1.1
		c-0.6-0.3-1.3-0.4-2-0.4h-9c-0.9,0-1.7-0.2-2.5-0.5c-0.8-0.3-1.5-0.8-2.1-1.4s-1.1-1.3-1.4-2.1c-0.3-0.8-0.5-1.6-0.5-2.5
		c0-0.9,0.2-1.7,0.5-2.5c0.3-0.8,0.8-1.5,1.4-2.1c0.6-0.6,1.3-1.1,2.1-1.4c0.8-0.3,1.6-0.5,2.5-0.5h9c1.1,0,2.1,0.2,3,0.6
		c0.9,0.4,1.8,1,2.5,1.6c0.7,0.7,1.3,1.5,1.7,2.5c0.4,0.9,0.6,2,0.6,3h-2.6c0-0.7-0.1-1.4-0.4-2c-0.3-0.6-0.6-1.2-1.1-1.6
		c-0.5-0.5-1-0.8-1.6-1.1c-0.6-0.3-1.3-0.4-2-0.4v7.7c1.1,0,2.2,0.2,3.2,0.7c1,0.4,1.8,1,2.5,1.8c0.7,0.8,1.2,1.6,1.6,2.6
		C50.4,33.2,50.6,34.2,50.5,35.3z"/>
	<path class="st0" d="M77.6,42.5H62.2l-1.1-2.6h-5.4l-1.1,2.6h-2.6l11.6-25.7h2.6L77.6,42.5z M58.4,33.9l-1.6,3.4h3.1L58.4,33.9z"/>
	<path class="st0" d="M99.8,28.2c1.1,0.7,2,1.5,2.6,2.5s1,2,1.1,3s0.1,2.1-0.2,3.2c-0.3,1-0.8,2-1.5,2.8c-0.7,0.8-1.5,1.5-2.5,2
		s-2.2,0.8-3.4,0.8H80.3V16.8h15.4c1,0,1.9,0.2,2.7,0.6c0.8,0.4,1.5,0.9,2.1,1.5c0.6,0.6,1,1.4,1.3,2.2s0.4,1.6,0.4,2.5
		c0,0.8-0.3,1.7-0.6,2.5C101.2,26.8,100.6,27.6,99.8,28.2z M99.6,23.2c0-1.1-0.4-2-1.1-2.7c-0.7-0.7-1.7-1.1-2.7-1.1V27
		c1.1,0,2-0.4,2.7-1.1C99.2,25.2,99.6,24.3,99.6,23.2z M100.9,34.8c0-0.7-0.1-1.4-0.4-2c-0.3-0.6-0.6-1.2-1.1-1.6
		c-0.5-0.5-1-0.8-1.6-1.1c-0.6-0.3-1.3-0.4-2-0.4v10.2c0.7,0,1.4-0.1,2-0.4c0.6-0.3,1.2-0.6,1.6-1.1c0.5-0.5,0.8-1,1.1-1.6
		C100.8,36.1,100.9,35.5,100.9,34.8z"/>
	<path class="st0" d="M128.2,42.5h-21.9V16.8h21.9v2.6h-6.4v7.7h6.4v2.6h-6.4v10.2h6.4V42.5z"/>
	<path class="st0" d="M154.3,42.4h-2.6h-5.1h-15.4V16.7h15.4V27v2.6v1.3v9h7.7V42.4z"/>
	<path class="st0" d="M180.3,42.4h-2.6h-5.1h-15.4V16.7h15.4V27v2.6v1.3v9h7.7V42.4z"/>
	<path class="st0" d="M225.4,23.2c0,2,0,4,0,5.9c0,1.9,0,3.9,0,5.9c0,1-0.3,2-0.7,2.9s-1,1.7-1.6,2.4c-0.7,0.7-1.5,1.2-2.4,1.6
		s-1.9,0.6-2.9,0.6h-6.4H210c-1.1,0-2.1-0.2-3-0.6c-0.9-0.4-1.8-1-2.4-1.6c-0.7-0.7-1.2-1.5-1.6-2.4s-0.6-1.9-0.6-3V24.5v-1.3v-6.4
		h7.7h7.7v2.6v20.5c1,0,1.8-0.2,2.4-0.5c0.6-0.3,1.2-0.9,1.8-1.7c0.5-0.8,0.8-1.5,0.9-2.3c0-0.8,0.1-1.6,0.1-2.4V16.8h2.6V23.2z"/>
	<path class="st0" d="M250.5,23.9c-0.1,1.4-0.5,2.4-1.1,3.2c-0.6,0.8-1.6,1.5-3,2l1.9,4.3l4.1,9h-2.6l-5.8-12.8v10.3v2.6h-15.4V16.7
		h15.4c1,0,2,0.2,2.8,0.6c0.8,0.4,1.5,1,2.1,1.6c0.6,0.7,1,1.4,1.2,2.3C250.5,22.1,250.6,23,250.5,23.9z M247.9,23.2
		c0-0.5-0.1-1-0.3-1.5c-0.2-0.5-0.5-0.9-0.8-1.2c-0.4-0.3-0.8-0.6-1.2-0.8c-0.5-0.2-1-0.3-1.5-0.3V27c0.5,0,1-0.1,1.5-0.3
		c0.5-0.2,0.9-0.5,1.2-0.8s0.6-0.8,0.8-1.2C247.8,24.2,247.9,23.7,247.9,23.2z"/>
	<path class="st0" d="M274.6,28.2c1.1,0.7,2,1.5,2.6,2.5s1,2,1.1,3s0.1,2.1-0.2,3.2c-0.3,1-0.8,2-1.5,2.8c-0.7,0.8-1.5,1.5-2.5,2
		s-2.2,0.8-3.4,0.8h-15.4V16.8h15.4c1,0,1.9,0.2,2.7,0.6c0.8,0.4,1.5,0.9,2.1,1.5c0.6,0.6,1,1.4,1.3,2.2s0.4,1.6,0.4,2.5
		c0,0.8-0.3,1.7-0.6,2.5C276,26.8,275.4,27.6,274.6,28.2z M274.5,23.2c0-1.1-0.4-2-1.1-2.7c-0.7-0.7-1.7-1.1-2.7-1.1V27
		c1.1,0,2-0.4,2.7-1.1C274.1,25.2,274.5,24.3,274.5,23.2z M275.7,34.8c0-0.7-0.1-1.4-0.4-2c-0.3-0.6-0.6-1.2-1.1-1.6
		c-0.5-0.5-1-0.8-1.6-1.1c-0.6-0.3-1.3-0.4-2-0.4v10.2c0.7,0,1.4-0.1,2-0.4c0.6-0.3,1.2-0.6,1.6-1.1c0.5-0.5,0.8-1,1.1-1.6
		C275.6,36.1,275.7,35.5,275.7,34.8z"/>
	<path class="st0" d="M305.4,42.5H290l-1.1-2.6h-5.4l-1.1,2.6h-2.6l11.6-25.7h2.6L305.4,42.5z M286.1,33.9l-1.6,3.4h3.1L286.1,33.9z
		"/>
	<path class="st0" d="M331.3,42.5h-2.6v-5.7v-1.5v-1.4l-5.1-11.4v2.8V31v11.4h-15.4V16.8h15.4l5.1,11.4V27V16.8h2.6V42.5z"/>
</g>
</svg>
