<svg id="Ebene_1" data-name="Ebene 1" xmlns="http://www.w3.org/2000/svg" viewBox="0 0 340.16 141.73"><defs><style>.cls-1{fill:#f2cf66;}</style></defs><path class="cls-1" d="M45.13,62H18V16.8H45.13Z"/><path class="cls-1" d="M91.49,49.6a11.77,11.77,0,0,1-1.23,5.07,13.45,13.45,0,0,1-3.06,4,14.73,14.73,0,0,1-4.3,2.67,14.14,14.14,0,0,1-4.94,1H64.36a13,13,0,0,1-5.27-1.09,13.69,13.69,0,0,1-7.19-7.24,13,13,0,0,1-1.08-5.27V44.26H78v13.6a8.92,8.92,0,0,0,3.54-.71,9.24,9.24,0,0,0,2.87-1.91,9.1,9.1,0,0,0,1.92-2.86,9.13,9.13,0,0,0,0-7.06,9.1,9.1,0,0,0-1.92-2.86,9.24,9.24,0,0,0-2.87-1.91A8.75,8.75,0,0,0,78,39.84H62.15a11,11,0,0,1-4.4-.88,11.47,11.47,0,0,1-6-6.05,11.42,11.42,0,0,1,0-8.79,11.47,11.47,0,0,1,6-6.05,11,11,0,0,1,4.4-.88H78a13.21,13.21,0,0,1,5.27,1.07,14.37,14.37,0,0,1,4.33,2.9,13.63,13.63,0,0,1,2.93,4.33,13.42,13.42,0,0,1,1.07,5.3H87a8.75,8.75,0,0,0-.71-3.54,8.87,8.87,0,0,0-4.79-4.79A8.75,8.75,0,0,0,78,21.75V35.28a13.41,13.41,0,0,1,10,4.33,13.79,13.79,0,0,1,2.8,4.59A12.68,12.68,0,0,1,91.49,49.6Z"/><path class="cls-1" d="M139.68,62.29H112.55l-2-4.49H101l-2,4.49H94.46l20.37-45.23h4.55Zm-33.9-15-2.73,6h5.46Z"/><path class="cls-1" d="M179.06,37.17a13.51,13.51,0,0,1,4.49,4.36,13.35,13.35,0,0,1,1.92,5.33,13.84,13.84,0,0,1-.43,5.57,13.34,13.34,0,0,1-2.57,4.94A13.68,13.68,0,0,1,178,60.92,13.12,13.12,0,0,1,172,62.29H144.83V17.06H172a11.24,11.24,0,0,1,4.82,1,10.74,10.74,0,0,1,3.61,2.7,12.33,12.33,0,0,1,2.25,3.84,10.94,10.94,0,0,1-.46,8.72A11.39,11.39,0,0,1,179.06,37.17Zm-.33-8.79A6.66,6.66,0,0,0,172,21.62V35.15a6.66,6.66,0,0,0,6.77-6.77ZM181,48.72a9,9,0,0,0-2.64-6.39,9.08,9.08,0,0,0-2.86-1.91,8.83,8.83,0,0,0-3.55-.71v18a9.08,9.08,0,0,0,6.41-2.62A9.09,9.09,0,0,0,181,48.72Z"/><path class="cls-1" d="M229.53,62.35H191.07V17.13h38.46v4.55H218.27V35.22h11.26v4.55H218.27v18h11.26Z"/><path class="cls-1" d="M275.74,62.22H235V17h27.14V57.67h13.6Z"/><path class="cls-1" d="M322,62.22H281.27V17H308.4V57.67H322Z"/><path class="cls-1" d="M72.16,82.15q0,7,.09,13.86t-.09,13.87a18.29,18.29,0,0,1-1.62,6.8,18.69,18.69,0,0,1-3.86,5.54A17.28,17.28,0,0,1,61,126a17.81,17.81,0,0,1-6.89,1.34h-18A17.58,17.58,0,0,1,29,125.86,18.13,18.13,0,0,1,23.29,122a18.32,18.32,0,0,1-3.86-5.72,17.52,17.52,0,0,1-1.43-7V67.07H54.14v54.16a12.13,12.13,0,0,0,5.63-1.17A12.51,12.51,0,0,0,64,116.12a10.09,10.09,0,0,0,2-5.36c.09-1.79.13-3.66.13-5.62V67.07h6Z"/><path class="cls-1" d="M131.38,83.79a13.89,13.89,0,0,1-2.51,7.59A15.52,15.52,0,0,1,121.93,96l4.51,10.14L136,127.21H129.9L116.39,97.14v30.07H80.25V67h36.14A14.53,14.53,0,0,1,123,68.45a14.8,14.8,0,0,1,4.9,3.86,16.07,16.07,0,0,1,2.9,5.37A14.55,14.55,0,0,1,131.38,83.79Zm-6-1.73a8.89,8.89,0,0,0-.7-3.55,8.58,8.58,0,0,0-1.94-2.86,9.36,9.36,0,0,0-2.91-1.91,8.83,8.83,0,0,0-3.46-.69v18a8.83,8.83,0,0,0,3.46-.69,9.36,9.36,0,0,0,2.91-1.91,8.58,8.58,0,0,0,1.94-2.86A8.89,8.89,0,0,0,125.4,82.06Z"/><path class="cls-1" d="M188.4,93.85a18,18,0,0,1,6,5.8,17.68,17.68,0,0,1,2.55,7.11,18.38,18.38,0,0,1-.56,7.4,18,18,0,0,1-3.42,6.59,18.35,18.35,0,0,1-5.94,4.72,17.33,17.33,0,0,1-8.06,1.82H142.82V67.07H179a14.94,14.94,0,0,1,6.41,1.34,14.38,14.38,0,0,1,4.81,3.6,16.07,16.07,0,0,1,3,5.11,14.58,14.58,0,0,1-.6,11.61A15.18,15.18,0,0,1,188.4,93.85ZM188,82.15a8.88,8.88,0,0,0-9-9v18a8.88,8.88,0,0,0,9-9Zm3,27.08a11.67,11.67,0,0,0-1-4.71,11.86,11.86,0,0,0-2.55-3.8,12.29,12.29,0,0,0-3.82-2.55,11.85,11.85,0,0,0-4.72-1v24a11.85,11.85,0,0,0,4.72-1,12.12,12.12,0,0,0,3.82-2.55,11.86,11.86,0,0,0,2.55-3.8A11.62,11.62,0,0,0,191,109.23Z"/><path class="cls-1" d="M261,127.29H224.82l-2.69-6H209.48l-2.68,6h-6.07l27.12-60.22h6.07Zm-45.14-20-3.64,8h7.28Z"/><path class="cls-1" d="M322,127.29h-6v-20.1L304,80.5v46.79H267.84V67.07H304l12,26.78V67.07h6Z"/></svg>