<?xml version="1.0" encoding="utf-8"?>
<!-- Generator: Adobe Illustrator 25.1.0, SVG Export Plug-In . SVG Version: 6.00 Build 0)  -->
<svg version="1.1" id="Ebene_1" xmlns="http://www.w3.org/2000/svg" xmlns:xlink="http://www.w3.org/1999/xlink" x="0px" y="0px"
	 viewBox="0 0 124.3 124.3" style="enable-background:new 0 0 124.3 124.3;" xml:space="preserve" fill="currentColor">
<g>
	<path d="M23,106.6c-1.4-3-2.2-6.3-2.3-9.8c-0.2-6.8-0.2-39.7-0.1-46.3h8.8c0,2.8,0.1,44.9,0.2,47.5c0.1,2.6,1.1,5.2,2.9,7.7
		c1.9,2.7,4,4.6,6.1,5.7c2.2,1.1,4.9,1.7,8.1,1.7V43.7V1.9C19.9,8.8,0,33.2,0,62.2c0,21.9,11.3,41.1,28.4,52.2
		C26.2,112.1,24.4,109.5,23,106.6z M20.7,35c0-4.4,8.6-4.7,8.6,0c0,3.1,0,8.2,0,8.2h-8.6C20.7,43.2,20.7,38,20.7,35z"/>
	<path d="M84.2,4v52.7v4.4v34.8c0,3.6-0.7,7-2.1,10.1c-1.4,3.2-3.2,5.9-5.6,8.3c-2.3,2.3-5.1,4.2-8.3,5.6s-6.6,2.1-10.3,2.1h-4.2
		h-7.1c-0.7,0-1.4,0-2.1-0.1c5.6,1.6,11.4,2.5,17.5,2.5c34.3,0,62.2-27.8,62.2-62.2C124.3,35.6,107.6,12.9,84.2,4z"/>
</g>
</svg>
