<?xml version="1.0" encoding="utf-8"?>
<svg version="1.1" id="Ebene_1" xmlns="http://www.w3.org/2000/svg" xmlns:xlink="http://www.w3.org/1999/xlink" x="0px" y="0px"
	 viewBox="0 0 124.3 124.3" style="enable-background:new 0 0 124.3 124.3;" xml:space="preserve">
<style type="text/css">
	.st0{clip-path:url(#SVGID_2_);fill:#FFFFFF;}
	.st1{clip-path:url(#SVGID_2_);fill:#802B35;}
	.st2{clip-path:url(#SVGID_4_);fill:#802B35;}
	.st3{fill:#FFFFFF;}
	.st4{fill:#F2CF66;}
	.st5{fill:none;}
</style>
<g>
	<path d="M85.1,117H81H60c-3.4,0-6.6-0.6-9.6-1.9c-3-1.2-5.6-3-7.9-5.2c-2.2-2.2-4-4.8-5.4-7.7c-1.3-2.9-2.1-6.1-2.3-9.5
		c-0.2-6.5-0.2-38.3-0.1-44.6h8.5c0,2.7,0.1,43.4,0.2,45.9c0.1,2.5,1.1,5,2.8,7.5c1.9,2.6,3.8,4.4,5.9,5.5c2.1,1.1,4.7,1.6,7.8,1.6
		v-67V0.1C26.7,1.2,0,28.6,0,62.2c0,34.3,27.8,62.2,62.2,62.2c12,0,23.1-3.4,32.6-9.2C91.8,116.3,88.5,117,85.1,117z M34.9,33.1
		c0-3.8,8.3-3.8,8.3,0c0,3,0,7.9,0,7.9h-8.3C34.9,41,34.9,36,34.9,33.1z"/>
	<path d="M110.3,22.9v31.2v4.2v33.5c0,3.5-0.7,6.7-2,9.8c-0.8,1.9-1.9,3.7-3.1,5.3c11.8-11.3,19.1-27.2,19.1-44.8
		C124.3,47.3,119.1,33.6,110.3,22.9z"/>
</g>
</svg>
