<?xml version="1.0" encoding="utf-8"?>
<!-- Generator: Adobe Illustrator 25.1.0, SVG Export Plug-In . SVG Version: 6.00 Build 0)  -->
<svg version="1.1" id="Ebene_1" xmlns="http://www.w3.org/2000/svg" xmlns:xlink="http://www.w3.org/1999/xlink" x="0px" y="0px"
	 viewBox="0 0 662.2 662.2" style="enable-background:new 0 0 662.2 662.2;" xml:space="preserve">
<style type="text/css">
	.st0{fill:#FFD700;}
</style>
<path class="st0" d="M273.9,105.7c5.7,6.9,9.3,16.6,10.6,29.2c1.4,14.7,2.1,29.5,2,44.2v2.1c8.3-11.8,18.9-21.7,31.2-29.1
	c15.5-9.3,34.4-15.2,56.8-17.7c-2.2-17.5-5.8-32.9-10.9-46.3c-8.9-23.5-22.9-41.1-42.2-52.7c-19.3-11.6-44.3-17.4-75.1-17.4
	c-30.8,0-55.9,5.8-75.3,17.4s-33.5,29.2-42.5,52.7c-9,23.5-13.5,53.3-13.5,89.3v307.1h90.5V179.2c-0.1-14.7,0.6-29.3,2.2-43.9
	c1.5-12.6,5-22.4,10.6-29.4c5.6-7,14.9-10.5,27.7-10.5C258.8,95.4,268.1,98.9,273.9,105.7z"/>
<path class="st0" d="M376.1,223.5h0.9v-0.6C376.7,223.1,376.4,223.3,376.1,223.5z"/>
<path class="st0" d="M417.1,168.6c30.8,0,55.9,5.8,75.3,17.4s33.6,29.2,42.6,52.7c9,23.5,13.5,53.3,13.5,89.3V635H458V329.6
	c0.1-14.7-0.6-29.3-2.2-43.9c-1.5-12.6-5-22.4-10.6-29.4c-5.6-7-14.9-10.5-27.7-10.5c-12.8,0-22.1,3.4-27.9,10.3
	c-5.7,6.9-9.3,16.6-10.6,29.2c-1.4,14.7-2.1,29.5-2,44.2v44.3h-90.5v-46c0-36,4.4-65.8,13.3-89.3c8.9-23.5,23-41.1,42.2-52.6
	C361.2,174.4,386.3,168.6,417.1,168.6z"/>
<path class="st0" d="M246.3,635c-30.9,0-55.9-5.8-75.3-17.4s-33.5-29.2-42.5-52.7c-9-23.5-13.5-53.3-13.5-89.3V168.6h90.5v305.4
	c-0.1,14.7,0.6,29.3,2.2,43.9c1.5,12.6,5,22.4,10.6,29.4s14.9,10.5,27.7,10.5c12.8,0,22.1-3.4,27.9-10.3s9.3-16.6,10.6-29.2
	c1.4-14.7,2.1-29.5,2-44.2V368.2h90.5v107.5c0,36-4.4,65.8-13.3,89.3c-8.9,23.5-23,41.1-42.2,52.7C302.2,629.2,277.1,635,246.3,635z
	"/>
</svg>
