<svg id="Ebene_1" data-name="Ebene 1" xmlns="http://www.w3.org/2000/svg" viewBox="0 0 568.93 133.16" fill="currentColor"><defs><style></style></defs><path class="cls-1" d="M39.69,108.39q-5.82,0-9.13-2.92a15.81,15.81,0,0,1-4.63-8.55,61.33,61.33,0,0,1-1.32-13.78V50.37a69.64,69.64,0,0,1,.61-9.6,24.82,24.82,0,0,1,2.24-7.65,11.81,11.81,0,0,1,4.65-5.06,15.32,15.32,0,0,1,7.9-1.8A14.48,14.48,0,0,1,47.67,28,11.22,11.22,0,0,1,52,33a24.68,24.68,0,0,1,1.94,7.54,87.69,87.69,0,0,1,.48,9.55v8H46.21V49.68a51.46,51.46,0,0,0-1.09-12.26c-.73-2.76-2.45-4.15-5.15-4.15a5.58,5.58,0,0,0-5.68,4.18q-1.42,4.17-1.43,12.19V83.23a85.25,85.25,0,0,0,.52,10.55,11.71,11.71,0,0,0,2,5.85,5.2,5.2,0,0,0,4.3,1.83c2.74,0,4.51-1.42,5.31-4.24s1.21-7.49,1.21-14v-7.8h8.25v7.71A66,66,0,0,1,53.23,97q-1.23,5.63-4.42,8.52T39.69,108.39Z"/><path class="cls-1" d="M65.32,107.43V27.21h8.25v73.52H88.11v6.7Z"/><path class="cls-1" d="M94.25,107.43l12.49-80.22h9.39l13.72,80.22H122l-2.46-15.86H104.33l-2.24,15.86ZM105.33,85.1H118.5l-6.79-43.89h-.14Z"/><path class="cls-1" d="M152.51,108.39c-3.86,0-6.89-.79-9.09-2.35a12.64,12.64,0,0,1-4.67-7.13,44.89,44.89,0,0,1-1.37-12.08V27.21h8.25V86.6a80.09,80.09,0,0,0,.34,8,9.28,9.28,0,0,0,1.8,5.09q1.46,1.72,4.74,1.73c2.25,0,3.84-.58,4.79-1.73A9.23,9.23,0,0,0,159,94.67q.28-3.33.29-8V27.21h8.21V86.83a45.9,45.9,0,0,1-1.33,12.08A12.49,12.49,0,0,1,161.6,106C159.43,107.6,156.4,108.39,152.51,108.39Z"/><path class="cls-1" d="M179.15,107.43V27.21H193q6.38,0,9.82,2.71a14,14,0,0,1,4.74,7.71,47.32,47.32,0,0,1,1.3,11.87l0,34.82a46.29,46.29,0,0,1-1.57,13.31,13.14,13.14,0,0,1-5.12,7.45q-3.56,2.36-9.53,2.35Zm8.21-6.84h5.19a7.72,7.72,0,0,0,4.51-1.23q1.78-1.23,2.69-4.62a40.59,40.59,0,0,0,.92-9.92V49q0-8.15-1.92-11.66a6.39,6.39,0,0,0-6-3.51h-5.37Z"/><path class="cls-1" d="M220.3,107.43V27.21h8.25v80.22Z"/><path class="cls-1" d="M255.37,108.39c-3.85,0-6.89-.79-9.09-2.35a12.64,12.64,0,0,1-4.67-7.13,44.89,44.89,0,0,1-1.37-12.08V27.21h8.25V86.6c0,3.13.12,5.81.34,8a9.28,9.28,0,0,0,1.8,5.09q1.47,1.72,4.74,1.73t4.79-1.73a9.23,9.23,0,0,0,1.71-5.06c.2-2.22.29-4.89.29-8V27.21h8.21V86.83a46.37,46.37,0,0,1-1.32,12.08,12.54,12.54,0,0,1-4.58,7.13C262.29,107.6,259.26,108.39,255.37,108.39Z"/><path class="cls-1" d="M295.64,108.34a14.46,14.46,0,0,1-7.77-1.85,11.53,11.53,0,0,1-4.44-5.15,25.71,25.71,0,0,1-2-7.72,82.24,82.24,0,0,1-.53-9.66v-8h8v8.16q0,9.25,1.32,13.29a5.45,5.45,0,0,0,5.7,4,5.72,5.72,0,0,0,4.37-1.46A8,8,0,0,0,302,95.33a73.37,73.37,0,0,0,.37-8.27,23.51,23.51,0,0,0-1.73-9.6,23.91,23.91,0,0,0-5.47-7.4l-5-4.88c-1.49-1.46-3-3.08-4.51-4.88a24.62,24.62,0,0,1-3.81-6.22A20.34,20.34,0,0,1,280.33,46a41.46,41.46,0,0,1,1.16-10.37,12.4,12.4,0,0,1,4.4-6.93q3.24-2.48,9.34-2.48A14.56,14.56,0,0,1,303,28a10.51,10.51,0,0,1,4.2,5,25.71,25.71,0,0,1,1.73,7.59q.38,4.36.38,9.57v4.65h-7.7V49.55a72.72,72.72,0,0,0-.5-9.55,10.49,10.49,0,0,0-1.84-5.2,4.9,4.9,0,0,0-4-1.62,6.72,6.72,0,0,0-4,1.1,6.18,6.18,0,0,0-2.23,3.62,27.57,27.57,0,0,0-.69,7,16.43,16.43,0,0,0,.83,5.7,12.43,12.43,0,0,0,2.48,4q1.67,1.85,4.08,4.35l5,5.15a38.25,38.25,0,0,1,7.11,10,29.66,29.66,0,0,1,2.69,13.15,46.48,46.48,0,0,1-1.18,11.14,13.21,13.21,0,0,1-4.4,7.36C302.87,107.47,299.74,108.34,295.64,108.34Z"/><path class="cls-1" d="M358.67,108.39c-3.86,0-6.89-.79-9.09-2.35a12.64,12.64,0,0,1-4.67-7.13,44.89,44.89,0,0,1-1.37-12.08V27.21h8.25V86.6c0,3.13.12,5.81.34,8a9.28,9.28,0,0,0,1.8,5.09q1.47,1.72,4.74,1.73t4.79-1.73a9.23,9.23,0,0,0,1.71-5.06c.2-2.22.29-4.89.29-8V27.21h8.21V86.83a46.37,46.37,0,0,1-1.32,12.08,12.54,12.54,0,0,1-4.58,7.13C365.59,107.6,362.56,108.39,358.67,108.39Z"/><path class="cls-1" d="M385.31,107.43V27.21h15.41c4.25,0,7.4.73,9.43,2.17a10.21,10.21,0,0,1,4,6.63A58.19,58.19,0,0,1,415,47.36a38.36,38.36,0,0,1-1.55,12.08,8.41,8.41,0,0,1-5.83,5.74,6.13,6.13,0,0,1,3.71,1.94,11.2,11.2,0,0,1,2.24,5,57.42,57.42,0,0,1,1.11,9.37q.32,5.9.32,15v2.1c0,.79,0,1.61.05,2.46s.07,1.68.13,2.48.15,1.54.25,2.21a11.57,11.57,0,0,0,.39,1.69h-8.2a5.36,5.36,0,0,1-.37-1.57c-.09-.75-.17-1.77-.25-3.06s-.13-2.92-.16-4.9,0-4.34,0-7.11V81.13a65,65,0,0,0-.34-7.59,4.89,4.89,0,0,0-1.81-3.62,9.85,9.85,0,0,0-4.78-1.23l-6.34-.37v39.11Zm8.21-45H400a7.36,7.36,0,0,0,4.21-1q1.49-1,2-4.26a65.09,65.09,0,0,0,.55-9.85v-.59a50.33,50.33,0,0,0-.5-8.23c-.34-1.83-1-3.07-1.92-3.69a7.67,7.67,0,0,0-4.19-.93h-6.7Z"/><path class="cls-1" d="M426.39,107.43V27.21h13.26q6.15,0,9.46,1.83a9.56,9.56,0,0,1,4.55,5.78,36.12,36.12,0,0,1,1.3,10.4v1.41a47.43,47.43,0,0,1-1.07,11.19,9.55,9.55,0,0,1-4.58,6.31,8.4,8.4,0,0,1,4.26,4.06,21.46,21.46,0,0,1,2.05,6.86,59.71,59.71,0,0,1,.57,8.45v1.6a52.33,52.33,0,0,1-1.43,12.67,12.82,12.82,0,0,1-4.56,7.31q-3.21,2.36-9,2.35Zm8.25-46.31h5.69a10.71,10.71,0,0,0,3.28-.41,3.23,3.23,0,0,0,2-1.78,12.14,12.14,0,0,0,.94-4.17q.25-2.79.25-7.58V45.63a28.14,28.14,0,0,0-.73-7.48,4.86,4.86,0,0,0-2.32-3.23,9.76,9.76,0,0,0-4.24-.78h-4.83Zm0,39.47h6.42a5.88,5.88,0,0,0,4.22-1.41q1.49-1.41,2.07-5a63.41,63.41,0,0,0,.59-9.93V82.41q0-7.93-1.27-11.37t-5.29-3.45h-6.74Z"/><path class="cls-1" d="M462.53,107.43,475,27.21h9.39l13.72,80.22h-7.84l-2.47-15.86H472.6l-2.23,15.86ZM473.6,85.1h13.18L480,41.21h-.14Z"/><path class="cls-1" d="M507.31,107.43V27.21h6.06l19,57.93-.82-25.2V27.21h7.25v80.22h-6.2L514.47,50l.5,20.92v36.55Z"/></svg>